<?xml version="1.0" encoding="UTF-8"?>
<svg id="Layer_1" data-name="Layer 1" xmlns="http://www.w3.org/2000/svg" xmlns:xlink="http://www.w3.org/1999/xlink" viewBox="0 0 30.36 31.34">
  <defs>
    <style>
      .cls-1 {
        fill: url(#linear-gradient-12);
      }

      .cls-1, .cls-2, .cls-3, .cls-4, .cls-5, .cls-6, .cls-7, .cls-8, .cls-9, .cls-10, .cls-11, .cls-12, .cls-13, .cls-14, .cls-15, .cls-16, .cls-17, .cls-18, .cls-19, .cls-20, .cls-21, .cls-22, .cls-23 {
        stroke-width: 0px;
      }

      .cls-2 {
        fill: url(#linear-gradient-17);
      }

      .cls-3 {
        fill: url(#linear-gradient-19);
      }

      .cls-4 {
        fill: url(#linear-gradient);
      }

      .cls-5 {
        fill: url(#linear-gradient-21);
      }

      .cls-6 {
        fill: url(#linear-gradient-6);
      }

      .cls-7 {
        fill: url(#linear-gradient-15);
      }

      .cls-8 {
        fill: url(#linear-gradient-11);
      }

      .cls-9 {
        fill: url(#linear-gradient-5);
      }

      .cls-10 {
        fill: url(#linear-gradient-13);
      }

      .cls-11 {
        fill: url(#linear-gradient-16);
      }

      .cls-12 {
        fill: url(#linear-gradient-22);
      }

      .cls-13 {
        fill: url(#linear-gradient-20);
      }

      .cls-14 {
        fill: url(#linear-gradient-14);
      }

      .cls-15 {
        fill: url(#linear-gradient-2);
      }

      .cls-16 {
        fill: #1c4075;
      }

      .cls-17 {
        fill: url(#linear-gradient-7);
      }

      .cls-18 {
        fill: url(#linear-gradient-3);
      }

      .cls-19 {
        fill: url(#linear-gradient-9);
      }

      .cls-20 {
        fill: url(#linear-gradient-8);
      }

      .cls-21 {
        fill: url(#linear-gradient-18);
      }

      .cls-22 {
        fill: url(#linear-gradient-10);
      }

      .cls-23 {
        fill: url(#linear-gradient-4);
      }
    </style>
    <linearGradient id="linear-gradient" x1="27.13" y1="5.38" x2="26.86" y2="5.86" gradientTransform="translate(14.48 -18.95) rotate(51.26)" gradientUnits="userSpaceOnUse">
      <stop offset=".1" stop-color="#4fc7ee"/>
      <stop offset=".23" stop-color="#45aed8"/>
      <stop offset=".49" stop-color="#2e71a1"/>
      <stop offset=".69" stop-color="#1c4075"/>
    </linearGradient>
    <linearGradient id="linear-gradient-2" x1="26.2" y1="16.89" x2="23.26" y2="21.99" gradientTransform="matrix(1,0,0,1,0,0)" xlink:href="#linear-gradient"/>
    <linearGradient id="linear-gradient-3" x1="18.49" y1="1.23" x2="5.93" y2="22.97" gradientTransform="matrix(1,0,0,1,0,0)" xlink:href="#linear-gradient"/>
    <linearGradient id="linear-gradient-4" x1="23.5" y1="6.63" x2="23.5" y2="6.63" gradientTransform="matrix(1,0,0,1,0,0)" xlink:href="#linear-gradient"/>
    <linearGradient id="linear-gradient-5" x1="24.98" y1="4.67" x2="24.52" y2="5.46" gradientTransform="matrix(1,0,0,1,0,0)" xlink:href="#linear-gradient"/>
    <linearGradient id="linear-gradient-6" x1="24.16" y1="5.65" x2="23.7" y2="6.45" gradientTransform="matrix(1,0,0,1,0,0)" xlink:href="#linear-gradient"/>
    <linearGradient id="linear-gradient-7" x1="26.37" y1="5.69" x2="26.11" y2="6.15" gradientTransform="translate(16.01 -18.95) rotate(54.92)" xlink:href="#linear-gradient"/>
    <linearGradient id="linear-gradient-8" x1="27.66" y1="4.5" x2="27.4" y2="4.95" gradientTransform="translate(15.57 -20.52) rotate(54.92)" xlink:href="#linear-gradient"/>
    <linearGradient id="linear-gradient-9" x1="27.83" y1="5.86" x2="27.58" y2="6.3" gradientTransform="translate(15.11 -19.34) rotate(51.26)" xlink:href="#linear-gradient"/>
    <linearGradient id="linear-gradient-10" x1="28.44" y1="5.03" x2="28.19" y2="5.47" gradientTransform="translate(14.69 -20.12) rotate(51.26)" xlink:href="#linear-gradient"/>
    <linearGradient id="linear-gradient-11" x1="28.4" y1="3.95" x2="28.19" y2="4.32" gradientTransform="translate(13.81 -20.52) rotate(51.26)" xlink:href="#linear-gradient"/>
    <linearGradient id="linear-gradient-12" x1="29.1" y1="4.55" x2="28.92" y2="4.86" gradientTransform="translate(14.53 -20.87) rotate(51.26)" xlink:href="#linear-gradient"/>
    <linearGradient id="linear-gradient-13" x1="29.26" y1="3.63" x2="29.08" y2="3.94" gradientTransform="translate(13.87 -21.34) rotate(51.26)" xlink:href="#linear-gradient"/>
    <linearGradient id="linear-gradient-14" x1="27.08" y1="2.7" x2="26.91" y2="3.01" gradientTransform="translate(12.33 -19.99) rotate(51.26)" xlink:href="#linear-gradient"/>
    <linearGradient id="linear-gradient-15" x1="27.8" y1="3.31" x2="27.62" y2="3.62" gradientTransform="translate(13.07 -20.31) rotate(51.26)" xlink:href="#linear-gradient"/>
    <linearGradient id="linear-gradient-16" x1="28.41" y1="2.74" x2="28.23" y2="3.05" gradientTransform="translate(12.85 -21) rotate(51.26)" xlink:href="#linear-gradient"/>
    <linearGradient id="linear-gradient-17" x1="27.12" y1="3.76" x2="26.87" y2="4.19" gradientTransform="translate(13.2 -19.57) rotate(51.26)" xlink:href="#linear-gradient"/>
    <linearGradient id="linear-gradient-18" x1="26.4" y1="3.37" x2="26.14" y2="3.81" gradientTransform="translate(12.63 -19.15) rotate(51.26)" xlink:href="#linear-gradient"/>
    <linearGradient id="linear-gradient-19" x1="25.75" y1="5.22" x2="25.5" y2="5.66" gradientTransform="translate(13.83 -17.95) rotate(51.26)" xlink:href="#linear-gradient"/>
    <linearGradient id="linear-gradient-20" x1="25.25" y1="5.89" x2="25" y2="6.33" gradientTransform="translate(14.17 -17.31) rotate(51.26)" xlink:href="#linear-gradient"/>
    <linearGradient id="linear-gradient-21" x1="26.61" y1="4.46" x2="26.24" y2="5.1" gradientTransform="translate(14.59 -19.33) rotate(53.6)" xlink:href="#linear-gradient"/>
    <linearGradient id="linear-gradient-22" x1="25.61" y1="3.9" x2="25.25" y2="4.52" gradientTransform="matrix(1,0,0,1,0,0)" xlink:href="#linear-gradient"/>
  </defs>
  <g>
    <rect class="cls-4" x="26.75" y="5.37" width=".49" height=".49" transform="translate(5.72 23.16) rotate(-51.26)"/>
    <g>
      <polygon class="cls-15" points="23.74 16.61 21.45 14.15 21.44 14.15 19.15 16.61 21.17 18.77 21.44 19.06 25.23 23.13 29.82 23.13 23.74 16.61"/>
      <path class="cls-18" d="M14.82,20.67c.22-.22,10-10.96,12.53-13.75l-.39-.25.26-.41h-.49l-.21.33-.51-.33h-.31l-.37.58-.67-.43s-.03-.01-.05-.02c-.02-.01-.04-.03-.06-.04l-.45.7-.72-.45h0l-.17-.11s-.03-.02-.04-.02l-1.3,1.39-3.14,3.36-.85.91-.68.72-.76.82-1.91,2.05-.38.41c-.25.86-.71,1.63-1.3,2.27-.6.64-1.33,1.14-2.17,1.45-.37.14-.77.24-1.18.3-.27.04-.54.06-.82.06-.86,0-1.67-.19-2.4-.53-1.65-.77-2.87-2.31-3.2-4.15-.06-.33-.09-.67-.09-1.01,0-3.15,2.55-5.69,5.69-5.69.18,0,.36,0,.54.03h0c.47.04.93.15,1.36.3,1.09.39,2.03,1.1,2.71,2.03.68.94,1.08,2.09,1.08,3.34,0,.1,0,.2-.01.29,0,.04,0,.09,0,.13l.17-.18,1.46-1.57,1.03-1.1.86-.92V3.59l-.63-.67-2.72-2.92v8.11c-.05-.05-.11-.1-.16-.14-.24-.21-.49-.4-.75-.58-.48-.34-1-.63-1.56-.86-.24-.1-.47-.19-.72-.27-.13-.04-.26-.08-.39-.11-.45-.12-.91-.21-1.38-.26-.29-.03-.59-.05-.89-.05-.45,0-.9.04-1.35.1,0,0-.02,0-.02,0-.44.07-.87.17-1.3.31-.24.08-.48.17-.71.27-1.04.44-1.96,1.06-2.76,1.86-.8.8-1.42,1.72-1.86,2.76-.45,1.07-.68,2.21-.68,3.38s.23,2.31.68,3.38c.44,1.04,1.06,1.96,1.86,2.76.8.8,1.72,1.42,2.76,1.86.69.29,1.42.49,2.16.6.4.06.81.09,1.22.09s.82-.03,1.23-.09c.16-.02.33-.05.49-.08.57-.11,1.13-.29,1.67-.51.5-.22.98-.47,1.44-.78.36-.24.7-.51,1.03-.81,0,0,.15-.14.29-.28Z"/>
    </g>
    <polygon class="cls-23" points="23.5 6.64 23.5 6.63 23.5 6.63 23.5 6.64"/>
    <polygon class="cls-9" points="25.25 4.92 24.81 4.57 24.26 5.21 24.72 5.58 25.25 4.92"/>
    <polygon class="cls-6" points="24.44 5.91 23.97 5.54 23.42 6.18 23.91 6.57 24.44 5.91"/>
    <rect class="cls-17" x="26" y="5.68" width=".49" height=".49" transform="translate(6.31 23.99) rotate(-54.92)"/>
    <rect class="cls-20" x="27.29" y="4.48" width=".49" height=".49" transform="translate(7.84 24.54) rotate(-54.92)"/>
    <rect class="cls-19" x="27.48" y="5.85" width=".44" height=".44" transform="translate(5.63 23.89) rotate(-51.26)"/>
    <rect class="cls-22" x="28.1" y="5.03" width=".44" height=".44" transform="translate(6.5 24.05) rotate(-51.26)"/>
    <rect class="cls-8" x="28.11" y="3.95" width=".37" height=".37" transform="translate(7.37 23.62) rotate(-51.26)"/>
    <rect class="cls-1" x="28.86" y="4.55" width=".31" height=".31" transform="translate(7.19 24.39) rotate(-51.26)"/>
    <rect class="cls-10" x="29.01" y="3.63" width=".31" height=".31" transform="translate(7.96 24.17) rotate(-51.26)"/>
    <rect class="cls-14" x="26.84" y="2.7" width=".31" height=".31" transform="translate(7.87 22.13) rotate(-51.26)"/>
    <rect class="cls-7" x="27.55" y="3.31" width=".31" height=".31" transform="translate(7.67 22.91) rotate(-51.26)"/>
    <rect class="cls-11" x="28.16" y="2.74" width=".31" height=".31" transform="translate(8.34 23.17) rotate(-51.26)"/>
    <rect class="cls-2" x="26.77" y="3.75" width=".44" height=".44" transform="translate(7 22.54) rotate(-51.26)"/>
    <rect class="cls-21" x="26.05" y="3.37" width=".44" height=".44" transform="translate(7.03 21.83) rotate(-51.26)"/>
    <rect class="cls-3" x="25.4" y="5.22" width=".44" height=".44" transform="translate(5.34 22.02) rotate(-51.26)"/>
    <rect class="cls-13" x="24.9" y="5.89" width=".44" height=".44" transform="translate(4.63 21.88) rotate(-51.26)"/>
    <rect class="cls-5" x="26.09" y="4.44" width=".67" height=".67" transform="translate(6.9 23.21) rotate(-53.6)"/>
    <polygon class="cls-12" points="25.85 4.09 25.45 3.81 25.01 4.32 25.46 4.64 25.85 4.09"/>
  </g>
  <g>
    <path class="cls-16" d="M3.09,30.33c0,.12-.04.2-.13.23-.04.02-.11.03-.21.03h-.65c-.16,0-.28-.02-.35-.06-.09-.05-.14-.16-.14-.3v-.44h-.35v.44c0,.47.28.7.83.7h.91c.27,0,.42-.15.42-.41v-.72h-.35v.55Z"/>
    <rect class="cls-16" x="1.98" y="29.49" width=".31" height=".29"/>
    <rect class="cls-16" x="2.45" y="29.49" width=".31" height=".29"/>
    <rect class="cls-16" x="5.32" y="29.3" width=".31" height=".29"/>
    <rect class="cls-16" x="5.8" y="29.3" width=".31" height=".29"/>
    <rect class="cls-16" x="5.56" y="28.89" width=".31" height=".29"/>
    <path class="cls-16" d="M6.26,30.36c0,.15-.06.23-.18.23h-.22c.03-.08.04-.16.04-.25v-.55h-.35v.58c0,.15-.06.23-.18.23h-.22c.03-.08.04-.16.04-.25v-.55h-.35v.56c0,.18-.06.24-.18.24h-.31c-.26,0-.3-.09-.3-.26v-1.02h-.35v1.21c0,.26.16.41.42.41h.84s0,0,0,0h1.13c.29,0,.52-.25.52-.59v-.55h-.35v.58Z"/>
    <path class="cls-16" d="M9.99,30.34c0,.16-.06.25-.18.25h-.46c-.04-.34-.17-.57-.39-.7-.09-.06-.2-.09-.33-.1h-.19l.31-.48h-.42l-.5.8h.63c.14,0,.25.05.35.14.09.09.14.2.16.34h-1.43c-.26,0-.3-.09-.3-.26v-1.02h-.35v1.21c0,.26.16.41.42.41h2.56c.15,0,.26-.05.35-.15.07-.09.11-.2.11-.33v-1.13h-.35v1.04Z"/>
    <rect class="cls-16" x="10.6" y="29.3" width=".35" height="1.62"/>
    <path class="cls-16" d="M14.36,30.34c0,.16-.06.25-.18.25h-.18c-.27,0-.37-.1-.44-.38-.06-.25-.27-.42-.56-.42h-.72c-.37,0-.63.26-.63.67v.89h.35v-.83c0-.25.1-.38.29-.38h.16c-.03.07-.04.15-.04.23,0,.34.22.57.57.57.21,0,.36-.07.47-.2.13.12.28.18.46.19h0s.08,0,.08,0h.25c.15,0,.26-.05.35-.15.07-.09.11-.2.11-.33v-1.13h-.35v1.04ZM13.01,30.64h-.03c-.13,0-.22-.12-.22-.29s.09-.29.23-.29.23.11.23.28c0,.2-.08.3-.22.3Z"/>
    <path class="cls-16" d="M15.51,29.78c-.33,0-.57.23-.57.58s.24.58.57.58c.12,0,.2-.04.25-.12,0,.14-.14.23-.28.23h-.02v.28h.04c.38,0,.58-.16.58-.46v-.51c0-.33-.23-.58-.56-.58ZM15.52,30.61c-.14,0-.22-.12-.22-.26,0-.15.08-.25.21-.25s.21.11.21.26-.08.25-.2.25Z"/>
    <rect class="cls-16" x="17.46" y="29.49" width=".31" height=".29"/>
    <path class="cls-16" d="M18.57,30.33c0,.12-.04.2-.13.23-.04.02-.11.03-.21.03h-.65c-.16,0-.28-.02-.35-.06-.09-.05-.14-.16-.14-.3v-.44h-.35v.44c0,.47.28.7.83.7h.91c.27,0,.42-.15.42-.41v-.72h-.35v.55Z"/>
    <rect class="cls-16" x="17.93" y="29.49" width=".31" height=".29"/>
    <rect class="cls-16" x="20.8" y="29.3" width=".31" height=".29"/>
    <rect class="cls-16" x="21.04" y="28.89" width=".31" height=".29"/>
    <rect class="cls-16" x="21.28" y="29.3" width=".31" height=".29"/>
    <path class="cls-16" d="M22.78,30.34c0,.16-.06.25-.18.25h-.56c.03-.08.05-.16.05-.26v-.55h-.35v.58c0,.15-.06.23-.18.23h-.22c.03-.08.04-.16.04-.25v-.55h-.35v.58c0,.15-.06.23-.18.23h-.22c.03-.08.04-.16.04-.25v-.55h-.35v.56c0,.18-.06.24-.18.24h-.31c-.26,0-.3-.09-.3-.26v-1.02h-.35v1.21c0,.26.16.41.42.41h3.08c.15,0,.26-.05.35-.15.07-.09.11-.2.11-.33v-1.13h-.35v1.04Z"/>
    <rect class="cls-16" x="23.39" y="29.3" width=".35" height="1.62"/>
    <rect class="cls-16" x="25.43" y="31.04" width=".31" height=".29"/>
    <rect class="cls-16" x="26.9" y="31.04" width=".31" height=".29"/>
    <rect class="cls-16" x="27.37" y="31.04" width=".31" height=".29"/>
    <path class="cls-16" d="M29.9,29.78v.58c0,.15-.06.23-.18.23h-.22c.03-.08.04-.16.04-.25v-.55h-.35v.58c0,.15-.06.23-.18.23h-.22c.03-.08.04-.16.04-.25v-.55h-.35v.56c0,.07,0,.11-.02.13-.03.07-.08.11-.16.11h-.62c.03-.08.04-.16.04-.25v-.55h-.35v.56c0,.16-.06.24-.18.24h-.6c.03-.08.04-.16.04-.25v-.55h-.35v.56c0,.16-.06.24-.18.24h-.8c-.16,0-.28-.02-.35-.06-.09-.05-.14-.16-.14-.3v-.43h-.35v.43c0,.47.28.7.83.7h4.45c.13,0,.24-.05.34-.13.12-.11.18-.26.18-.46v-.55h-.35Z"/>
  </g>
  <g>
    <path class="cls-16" d="M3.65,23.21c.37,0,.72.06,1.05.19.32.13.61.31.85.55.24.24.43.51.57.82s.21.64.21,1-.07.7-.21,1.01c-.14.31-.33.59-.57.82-.24.24-.53.42-.85.55-.32.13-.67.2-1.05.2s-.72-.07-1.05-.2c-.32-.13-.61-.32-.85-.55-.24-.23-.43-.51-.57-.82-.14-.31-.21-.65-.21-1.01s.07-.7.21-1.01c.14-.31.33-.58.57-.82.24-.23.53-.41.85-.54.32-.13.67-.19,1.05-.19ZM3.66,23.93c-.25,0-.48.05-.7.14-.22.09-.41.22-.58.39-.17.17-.3.36-.39.59-.09.22-.14.46-.14.72s.05.5.14.73c.1.23.23.42.4.59.17.17.36.3.58.4.22.1.45.14.69.14s.48-.05.69-.14c.22-.1.41-.23.57-.4.16-.17.29-.37.38-.59.09-.23.14-.47.14-.73s-.05-.5-.14-.72c-.09-.22-.22-.42-.38-.59-.16-.17-.35-.3-.57-.39-.22-.09-.45-.14-.69-.14Z"/>
    <path class="cls-16" d="M9.88,25.57c-.13-.14-.29-.25-.47-.32-.18-.08-.39-.12-.62-.12s-.42.05-.59.16c-.17.11-.31.25-.4.44-.1.19-.14.41-.14.66s.05.47.14.66c.1.19.23.34.4.45.17.11.37.16.59.16.24,0,.46-.04.65-.12.19-.08.35-.2.48-.35l.46.45c-.17.22-.4.38-.67.5-.28.12-.59.18-.95.18-.38,0-.71-.08-1-.24-.29-.16-.52-.39-.68-.68-.16-.29-.24-.63-.24-1.01s.08-.72.24-1.01c.16-.29.39-.52.68-.68.29-.17.62-.25,1-.25.35,0,.65.05.92.15.27.1.49.25.67.44l-.45.53Z"/>
    <path class="cls-16" d="M10.85,24.61h2.49v.59h-2.49v-.59ZM12.21,27.09c0,.21.04.35.11.42.07.07.17.11.3.11.09,0,.18-.01.27-.04.09-.03.2-.07.31-.13l.21.6c-.15.09-.3.16-.46.21-.16.05-.32.08-.48.08-.19,0-.37-.04-.53-.11-.16-.07-.29-.19-.39-.36-.1-.16-.15-.37-.15-.63v-3.66h.82v3.52Z"/>
    <path class="cls-16" d="M15.76,24.45c.39,0,.74.08,1.04.24.3.16.53.39.7.68.17.29.25.63.25,1.01s-.08.72-.25,1.01c-.17.29-.4.52-.7.68-.3.16-.65.24-1.04.24s-.74-.08-1.04-.24c-.3-.16-.54-.39-.71-.68-.17-.29-.25-.63-.25-1.01s.08-.72.25-1.01c.17-.29.4-.52.71-.68.3-.16.65-.24,1.04-.24ZM15.76,25.12c-.23,0-.43.05-.61.16-.18.11-.32.26-.41.45-.1.19-.15.41-.15.66s.05.48.15.67c.1.19.24.34.41.45.18.11.38.16.61.16s.43-.05.61-.16c.18-.11.31-.26.41-.45.1-.19.15-.41.15-.67s-.05-.47-.15-.66c-.1-.19-.24-.34-.41-.45-.18-.11-.38-.16-.61-.16Z"/>
    <path class="cls-16" d="M20.86,23.26c.35,0,.65.05.9.15.25.1.45.24.58.43s.21.41.21.68c0,.28-.08.53-.24.73-.16.2-.37.33-.65.4.34.06.6.2.79.42.19.23.29.51.29.85,0,.29-.07.53-.22.74-.15.21-.36.36-.63.47-.27.11-.6.17-.98.17h-2.24v-5.04h2.19ZM20.81,25.36c.27,0,.48-.06.63-.18.15-.12.23-.29.23-.51s-.08-.38-.23-.5c-.15-.12-.36-.17-.63-.17h-1.3v1.37h1.3ZM20.81,27.57c.33,0,.59-.06.78-.19.19-.13.28-.32.28-.56,0-.23-.09-.41-.28-.54s-.45-.2-.78-.19h-1.3v1.49h1.3Z"/>
    <path class="cls-16" d="M25.34,24.45c.39,0,.74.08,1.04.24.3.16.53.39.7.68.17.29.25.63.25,1.01s-.08.72-.25,1.01c-.17.29-.4.52-.7.68-.3.16-.65.24-1.04.24s-.74-.08-1.04-.24c-.3-.16-.54-.39-.71-.68-.17-.29-.25-.63-.25-1.01s.08-.72.25-1.01c.17-.29.4-.52.71-.68.3-.16.65-.24,1.04-.24ZM25.34,25.12c-.23,0-.43.05-.61.16-.18.11-.32.26-.41.45-.1.19-.15.41-.15.66s.05.48.15.67c.1.19.24.34.41.45.18.11.38.16.61.16s.43-.05.61-.16c.18-.11.31-.26.41-.45.1-.19.15-.41.15-.67s-.05-.47-.15-.66c-.1-.19-.24-.34-.41-.45-.18-.11-.38-.16-.61-.16Z"/>
    <path class="cls-16" d="M27.81,24.61h2.49v.59h-2.49v-.59ZM29.17,27.09c0,.21.04.35.11.42.07.07.17.11.3.11.09,0,.18-.01.27-.04.09-.03.2-.07.31-.13l.21.6c-.15.09-.3.16-.46.21-.16.05-.32.08-.48.08-.19,0-.37-.04-.53-.11-.16-.07-.29-.19-.39-.36-.1-.16-.15-.37-.15-.63v-3.66h.82v3.52Z"/>
  </g>
</svg>