<?xml version="1.0" encoding="UTF-8"?>
<svg id="Layer_1" data-name="Layer 1" xmlns="http://www.w3.org/2000/svg" xmlns:xlink="http://www.w3.org/1999/xlink" viewBox="0 0 182.38 188.24">
  <defs>
    <style>
      .cls-1 {
        fill: url(#linear-gradient-12);
      }

      .cls-1, .cls-2, .cls-3, .cls-4, .cls-5, .cls-6, .cls-7, .cls-8, .cls-9, .cls-10, .cls-11, .cls-12, .cls-13, .cls-14, .cls-15, .cls-16, .cls-17, .cls-18, .cls-19, .cls-20, .cls-21, .cls-22, .cls-23 {
        stroke-width: 0px;
      }

      .cls-2 {
        fill: url(#linear-gradient-17);
      }

      .cls-3 {
        fill: url(#linear-gradient-19);
      }

      .cls-4 {
        fill: url(#linear-gradient);
      }

      .cls-5 {
        fill: url(#linear-gradient-21);
      }

      .cls-6 {
        fill: url(#linear-gradient-6);
      }

      .cls-7 {
        fill: url(#linear-gradient-15);
      }

      .cls-8 {
        fill: url(#linear-gradient-11);
      }

      .cls-9 {
        fill: url(#linear-gradient-5);
      }

      .cls-10 {
        fill: url(#linear-gradient-13);
      }

      .cls-11 {
        fill: url(#linear-gradient-16);
      }

      .cls-12 {
        fill: url(#linear-gradient-22);
      }

      .cls-13 {
        fill: url(#linear-gradient-20);
      }

      .cls-14 {
        fill: url(#linear-gradient-14);
      }

      .cls-15 {
        fill: url(#linear-gradient-2);
      }

      .cls-16 {
        fill: #1c4075;
      }

      .cls-17 {
        fill: url(#linear-gradient-7);
      }

      .cls-18 {
        fill: url(#linear-gradient-3);
      }

      .cls-19 {
        fill: url(#linear-gradient-9);
      }

      .cls-20 {
        fill: url(#linear-gradient-8);
      }

      .cls-21 {
        fill: url(#linear-gradient-18);
      }

      .cls-22 {
        fill: url(#linear-gradient-10);
      }

      .cls-23 {
        fill: url(#linear-gradient-4);
      }
    </style>
    <linearGradient id="linear-gradient" x1="163" y1="32.3" x2="161.33" y2="35.19" gradientTransform="translate(87.01 -113.86) rotate(51.26)" gradientUnits="userSpaceOnUse">
      <stop offset=".1" stop-color="#4fc7ee"/>
      <stop offset=".23" stop-color="#45aed8"/>
      <stop offset=".49" stop-color="#2e71a1"/>
      <stop offset=".69" stop-color="#1c4075"/>
    </linearGradient>
    <linearGradient id="linear-gradient-2" x1="157.39" y1="101.48" x2="139.73" y2="132.07" gradientTransform="matrix(1,0,0,1,0,0)" xlink:href="#linear-gradient"/>
    <linearGradient id="linear-gradient-3" x1="111.04" y1="7.36" x2="35.63" y2="137.98" gradientTransform="matrix(1,0,0,1,0,0)" xlink:href="#linear-gradient"/>
    <linearGradient id="linear-gradient-4" x1="141.15" y1="39.86" x2="141.15" y2="39.86" gradientTransform="matrix(1,0,0,1,0,0)" xlink:href="#linear-gradient"/>
    <linearGradient id="linear-gradient-5" x1="150.06" y1="28.04" x2="147.3" y2="32.82" gradientTransform="matrix(1,0,0,1,0,0)" xlink:href="#linear-gradient"/>
    <linearGradient id="linear-gradient-6" x1="145.13" y1="33.92" x2="142.36" y2="38.72" gradientTransform="matrix(1,0,0,1,0,0)" xlink:href="#linear-gradient"/>
    <linearGradient id="linear-gradient-7" x1="158.42" y1="34.2" x2="156.83" y2="36.95" gradientTransform="translate(96.15 -113.86) rotate(54.92)" xlink:href="#linear-gradient"/>
    <linearGradient id="linear-gradient-8" x1="166.18" y1="27" x2="164.59" y2="29.76" gradientTransform="translate(93.55 -123.27) rotate(54.92)" xlink:href="#linear-gradient"/>
    <linearGradient id="linear-gradient-9" x1="167.2" y1="35.18" x2="165.68" y2="37.82" gradientTransform="translate(90.76 -116.16) rotate(51.26)" xlink:href="#linear-gradient"/>
    <linearGradient id="linear-gradient-10" x1="170.87" y1="30.21" x2="169.35" y2="32.85" gradientTransform="translate(88.24 -120.88) rotate(51.26)" xlink:href="#linear-gradient"/>
    <linearGradient id="linear-gradient-11" x1="170.62" y1="23.72" x2="169.34" y2="25.93" gradientTransform="translate(82.97 -123.29) rotate(51.26)" xlink:href="#linear-gradient"/>
    <linearGradient id="linear-gradient-12" x1="174.83" y1="27.35" x2="173.76" y2="29.21" gradientTransform="translate(87.28 -125.36) rotate(51.26)" xlink:href="#linear-gradient"/>
    <linearGradient id="linear-gradient-13" x1="175.77" y1="21.82" x2="174.7" y2="23.68" gradientTransform="translate(83.32 -128.17) rotate(51.26)" xlink:href="#linear-gradient"/>
    <linearGradient id="linear-gradient-14" x1="162.7" y1="16.24" x2="161.63" y2="18.1" gradientTransform="translate(74.08 -120.06) rotate(51.26)" xlink:href="#linear-gradient"/>
    <linearGradient id="linear-gradient-15" x1="166.98" y1="19.88" x2="165.9" y2="21.74" gradientTransform="translate(78.52 -122.03) rotate(51.26)" xlink:href="#linear-gradient"/>
    <linearGradient id="linear-gradient-16" x1="170.64" y1="16.45" x2="169.57" y2="18.3" gradientTransform="translate(77.21 -126.18) rotate(51.26)" xlink:href="#linear-gradient"/>
    <linearGradient id="linear-gradient-17" x1="162.92" y1="22.56" x2="161.4" y2="25.2" gradientTransform="translate(79.31 -117.55) rotate(51.26)" xlink:href="#linear-gradient"/>
    <linearGradient id="linear-gradient-18" x1="158.57" y1="20.25" x2="157.05" y2="22.89" gradientTransform="translate(75.88 -115.02) rotate(51.26)" xlink:href="#linear-gradient"/>
    <linearGradient id="linear-gradient-19" x1="154.69" y1="31.37" x2="153.17" y2="34.01" gradientTransform="translate(83.1 -107.83) rotate(51.26)" xlink:href="#linear-gradient"/>
    <linearGradient id="linear-gradient-20" x1="151.68" y1="35.41" x2="150.15" y2="38.04" gradientTransform="translate(85.12 -103.97) rotate(51.26)" xlink:href="#linear-gradient"/>
    <linearGradient id="linear-gradient-21" x1="159.87" y1="26.78" x2="157.64" y2="30.64" gradientTransform="translate(87.66 -116.1) rotate(53.6)" xlink:href="#linear-gradient"/>
    <linearGradient id="linear-gradient-22" x1="153.84" y1="23.43" x2="151.7" y2="27.14" gradientTransform="matrix(1,0,0,1,0,0)" xlink:href="#linear-gradient"/>
  </defs>
  <g>
    <rect class="cls-4" x="160.7" y="32.28" width="2.93" height="2.93" transform="translate(34.36 139.12) rotate(-51.26)"/>
    <g>
      <polygon class="cls-15" points="142.59 99.76 128.83 85 128.82 84.99 115.06 99.76 127.16 112.74 128.82 114.51 151.59 138.92 179.11 138.92 142.59 99.76"/>
      <path class="cls-18" d="M89.02,124.17c1.33-1.33,60.06-65.84,75.25-82.59l-2.33-1.48,1.56-2.44h-2.94l-1.28,1.98-3.06-1.98h-1.84l-2.23,3.49-4.02-2.58c-.09-.05-.19-.08-.28-.14-.13-.08-.25-.16-.38-.25l-2.72,4.2-4.34-2.69h-.02l-1-.64c-.09-.03-.17-.09-.23-.14l-7.81,8.36-18.85,20.21-5.11,5.49-4.06,4.34-4.59,4.94-11.47,12.31-2.3,2.45c-1.53,5.16-4.24,9.81-7.81,13.64-3.58,3.83-8.02,6.83-13.02,8.69-2.25.84-4.63,1.45-7.06,1.81-1.61.23-3.25.34-4.92.34-5.16,0-10.05-1.14-14.44-3.19-9.91-4.63-17.24-13.86-19.22-24.94-.34-1.97-.53-4-.53-6.06,0-18.89,15.3-34.21,34.19-34.21,1.11,0,2.19.05,3.27.16h.02c2.83.27,5.56.89,8.17,1.8,6.56,2.34,12.22,6.63,16.25,12.17,4.09,5.63,6.52,12.56,6.52,20.08,0,.58-.02,1.17-.06,1.77-.02.25-.02.52-.05.77l1-1.06,8.8-9.42,6.17-6.63,5.16-5.53V21.58l-3.77-4.05L87.25,0v48.74c-.32-.29-.64-.58-.97-.87-1.43-1.24-2.93-2.39-4.48-3.46-2.91-2.05-6.03-3.77-9.35-5.16-1.42-.59-2.84-1.13-4.3-1.61-.78-.25-1.55-.47-2.33-.67-2.72-.75-5.49-1.27-8.31-1.55-1.77-.19-3.56-.28-5.38-.28-2.72,0-5.42.22-8.08.63-.05.02-.09.02-.12.03-2.64.42-5.25,1.03-7.8,1.84-1.45.48-2.88,1.02-4.28,1.61-6.22,2.63-11.8,6.38-16.58,11.16-4.78,4.78-8.53,10.36-11.16,16.58-2.72,6.44-4.11,13.27-4.11,20.3s1.39,13.85,4.11,20.29c2.63,6.22,6.38,11.8,11.16,16.58,4.78,4.78,10.36,8.53,16.58,11.17,4.16,1.75,8.5,2.95,12.96,3.58,2.41.34,4.86.52,7.33.52s4.94-.17,7.36-.52c.98-.14,1.95-.3,2.94-.5,3.42-.69,6.77-1.72,10.02-3.08,3.03-1.3,5.91-2.84,8.63-4.66,2.17-1.45,4.22-3.06,6.17-4.84,0,0,.89-.81,1.77-1.67Z"/>
    </g>
    <polygon class="cls-23" points="141.16 39.86 141.15 39.86 141.15 39.85 141.16 39.86"/>
    <polygon class="cls-9" points="151.66 29.57 149.01 27.43 145.71 31.27 148.51 33.51 151.66 29.57"/>
    <polygon class="cls-6" points="146.82 35.53 143.99 33.26 140.68 37.1 143.65 39.47 146.82 35.53"/>
    <rect class="cls-17" x="156.16" y="34.11" width="2.93" height="2.93" transform="translate(37.92 144.13) rotate(-54.92)"/>
    <rect class="cls-20" x="163.92" y="26.92" width="2.93" height="2.93" transform="translate(47.11 147.41) rotate(-54.92)"/>
    <rect class="cls-19" x="165.11" y="35.17" width="2.67" height="2.67" transform="translate(33.81 143.48) rotate(-51.26)"/>
    <rect class="cls-22" x="168.77" y="30.2" width="2.67" height="2.67" transform="translate(39.06 144.48) rotate(-51.26)"/>
    <rect class="cls-8" x="168.86" y="23.71" width="2.24" height="2.24" transform="translate(44.24 141.87) rotate(-51.26)"/>
    <rect class="cls-1" x="173.35" y="27.34" width="1.88" height="1.88" transform="translate(43.17 146.53) rotate(-51.26)"/>
    <rect class="cls-10" x="174.3" y="21.81" width="1.88" height="1.88" transform="translate(47.84 145.2) rotate(-51.26)"/>
    <rect class="cls-14" x="161.22" y="16.23" width="1.88" height="1.88" transform="translate(47.3 132.92) rotate(-51.26)"/>
    <rect class="cls-7" x="165.5" y="19.87" width="1.88" height="1.88" transform="translate(46.05 137.61) rotate(-51.26)"/>
    <rect class="cls-11" x="169.17" y="16.44" width="1.88" height="1.88" transform="translate(50.1 139.18) rotate(-51.26)"/>
    <rect class="cls-2" x="160.83" y="22.55" width="2.67" height="2.67" transform="translate(42.05 135.42) rotate(-51.26)"/>
    <rect class="cls-21" x="156.47" y="20.23" width="2.67" height="2.67" transform="translate(42.23 131.16) rotate(-51.26)"/>
    <rect class="cls-3" x="152.6" y="31.35" width="2.67" height="2.67" transform="translate(32.11 132.3) rotate(-51.26)"/>
    <rect class="cls-13" x="149.58" y="35.39" width="2.67" height="2.67" transform="translate(27.83 131.46) rotate(-51.26)"/>
    <rect class="cls-5" x="156.74" y="26.7" width="4.03" height="4.03" transform="translate(41.43 139.45) rotate(-53.6)"/>
    <polygon class="cls-12" points="155.28 24.57 152.91 22.9 150.27 25.97 152.96 27.87 155.28 24.57"/>
  </g>
  <g>
    <path class="cls-16" d="M18.55,182.17c0,.71-.26,1.18-.75,1.39-.23.11-.63.15-1.24.15h-3.89c-.98,0-1.68-.12-2.11-.38-.56-.32-.85-.94-.85-1.83v-2.63h-2.08v2.63c0,2.82,1.66,4.23,5,4.23h5.46c1.63,0,2.55-.92,2.55-2.49v-4.35h-2.08v3.27Z"/>
    <rect class="cls-16" x="11.86" y="177.15" width="1.89" height="1.75"/>
    <rect class="cls-16" x="14.72" y="177.15" width="1.89" height="1.75"/>
    <rect class="cls-16" x="31.99" y="176.02" width="1.89" height="1.74"/>
    <rect class="cls-16" x="34.84" y="176.02" width="1.87" height="1.74"/>
    <rect class="cls-16" x="33.39" y="173.53" width="1.87" height="1.74"/>
    <path class="cls-16" d="M37.6,182.36c0,.91-.36,1.36-1.07,1.36h-1.34c.17-.45.26-.97.26-1.52v-3.29h-2.11v3.46c0,.91-.36,1.36-1.07,1.36h-1.34c.17-.45.26-.97.26-1.52v-3.29h-2.13v3.37c0,1.09-.38,1.45-1.07,1.45h-1.87c-1.55,0-1.81-.54-1.81-1.57v-6.14h-2.11v7.24c0,1.55.94,2.49,2.55,2.49h5.07s0,0,0,0h6.81c1.75,0,3.12-1.49,3.12-3.56v-3.27h-2.13v3.46Z"/>
    <path class="cls-16" d="M60,182.24c0,.98-.36,1.48-1.07,1.48h-2.77c-.23-2.02-1.01-3.43-2.35-4.23-.56-.33-1.22-.53-1.96-.6h-1.13l1.89-2.87h-2.52l-2.99,4.81h3.8c.81,0,1.51.29,2.08.86.53.53.86,1.21.97,2.02h-8.6c-1.55,0-1.81-.54-1.81-1.57v-6.14h-2.11v7.24c0,1.55.94,2.49,2.55,2.49h15.4c.89,0,1.58-.3,2.08-.92.44-.53.66-1.19.66-1.99v-6.81h-2.11v6.22Z"/>
    <rect class="cls-16" x="63.66" y="176" width="2.11" height="9.73"/>
    <path class="cls-16" d="M86.27,182.24c0,.98-.36,1.48-1.07,1.48h-1.11c-1.61-.03-2.25-.57-2.64-2.31-.35-1.52-1.6-2.5-3.35-2.5h-4.3c-2.23,0-3.76,1.57-3.76,4.01v5.33h2.08v-5c0-1.52.59-2.29,1.77-2.29h.97c-.17.42-.24.89-.24,1.4,0,2.07,1.34,3.43,3.41,3.43,1.25,0,2.19-.41,2.84-1.21.75.72,1.67,1.05,2.78,1.13v.03h1.99c.89,0,1.58-.3,2.08-.92.44-.53.66-1.19.66-1.99v-6.81h-2.11v6.22ZM78.13,184.08h-.15c-.77,0-1.3-.71-1.3-1.72s.53-1.74,1.4-1.74,1.39.66,1.39,1.68c0,1.19-.45,1.78-1.34,1.78Z"/>
    <path class="cls-16" d="M93.2,178.87c-1.98,0-3.4,1.39-3.4,3.46s1.45,3.5,3.4,3.5c.71,0,1.21-.23,1.49-.69,0,.81-.83,1.4-1.67,1.4h-.14v1.69h.21c2.31,0,3.46-.94,3.46-2.79v-3.08c0-1.99-1.4-3.49-3.35-3.49ZM93.23,183.86c-.83,0-1.31-.71-1.31-1.55,0-.89.5-1.52,1.24-1.52s1.28.65,1.28,1.57-.45,1.51-1.21,1.51Z"/>
    <rect class="cls-16" x="104.87" y="177.15" width="1.89" height="1.75"/>
    <path class="cls-16" d="M111.55,182.17c0,.71-.26,1.18-.75,1.39-.23.11-.63.15-1.24.15h-3.89c-.98,0-1.67-.12-2.11-.38-.56-.32-.84-.94-.84-1.83v-2.63h-2.08v2.63c0,2.82,1.66,4.23,4.99,4.23h5.46c1.63,0,2.55-.92,2.55-2.49v-4.35h-2.08v3.27Z"/>
    <rect class="cls-16" x="107.72" y="177.15" width="1.89" height="1.75"/>
    <rect class="cls-16" x="124.96" y="176.02" width="1.89" height="1.74"/>
    <rect class="cls-16" x="126.36" y="173.53" width="1.87" height="1.74"/>
    <rect class="cls-16" x="127.81" y="176.02" width="1.87" height="1.74"/>
    <path class="cls-16" d="M136.87,182.24c0,.98-.36,1.48-1.07,1.48h-3.34c.18-.47.27-.98.27-1.54v-3.27h-2.13v3.46c0,.91-.36,1.36-1.07,1.36h-1.34c.17-.45.26-.97.26-1.52v-3.29h-2.11v3.46c0,.91-.36,1.36-1.07,1.36h-1.34c.17-.45.26-.97.26-1.52v-3.29h-2.13v3.38c0,1.06-.38,1.43-1.07,1.43h-1.87c-1.55,0-1.81-.54-1.81-1.57v-6.14h-2.11v7.24c0,1.55.94,2.49,2.55,2.49h18.51c.89,0,1.58-.3,2.08-.92.44-.53.66-1.19.66-1.99v-6.81h-2.11v6.22Z"/>
    <rect class="cls-16" x="140.52" y="176" width="2.11" height="9.73"/>
    <rect class="cls-16" x="152.76" y="186.49" width="1.89" height="1.75"/>
    <rect class="cls-16" x="161.58" y="186.49" width="1.87" height="1.75"/>
    <rect class="cls-16" x="164.42" y="186.49" width="1.87" height="1.75"/>
    <path class="cls-16" d="M179.62,178.9v3.46c0,.91-.36,1.36-1.07,1.36h-1.34c.17-.45.26-.97.26-1.52v-3.29h-2.11v3.46c0,.91-.36,1.36-1.07,1.36h-1.34c.17-.45.26-.97.26-1.52v-3.29h-2.13v3.37c0,.41-.03.66-.09.78-.17.44-.5.66-.98.66h-3.73c.17-.47.24-.97.24-1.52v-3.29h-2.13v3.37c0,.97-.35,1.45-1.06,1.45h-3.61c.17-.47.24-.97.24-1.52v-3.29h-2.11v3.37c0,.97-.36,1.45-1.07,1.45h-4.81c-.98,0-1.67-.12-2.11-.38-.56-.32-.84-.94-.84-1.83v-2.61h-2.08v2.61c0,2.82,1.66,4.23,5,4.23h26.72c.75,0,1.43-.27,2.02-.8.74-.66,1.1-1.58,1.1-2.76v-3.27h-2.13Z"/>
  </g>
  <g>
    <path class="cls-16" d="M21.94,139.43c2.25,0,4.34.39,6.29,1.17,1.95.78,3.64,1.87,5.1,3.28,1.45,1.41,2.59,3.05,3.41,4.91s1.23,3.87,1.23,6.03-.41,4.19-1.23,6.07c-.82,1.89-1.96,3.54-3.41,4.95-1.46,1.41-3.16,2.51-5.1,3.31-1.94.79-4.04,1.19-6.29,1.19s-4.34-.4-6.29-1.19c-1.95-.79-3.65-1.89-5.1-3.31-1.46-1.41-2.59-3.06-3.41-4.95-.82-1.89-1.23-3.91-1.23-6.07s.41-4.18,1.23-6.05c.82-1.87,1.96-3.51,3.41-4.91,1.45-1.4,3.16-2.49,5.1-3.26,1.94-.78,4.04-1.17,6.29-1.17ZM21.99,143.76c-1.5,0-2.9.28-4.21.84-1.31.56-2.47,1.35-3.48,2.36-1.01,1.01-1.79,2.18-2.36,3.52-.56,1.34-.84,2.79-.84,4.34s.29,3.01.86,4.37c.58,1.35,1.37,2.54,2.38,3.57,1.01,1.02,2.17,1.82,3.48,2.4,1.31.58,2.7.86,4.17.86s2.86-.29,4.17-.86c1.31-.58,2.46-1.38,3.44-2.4.98-1.02,1.75-2.21,2.31-3.57.56-1.35.84-2.81.84-4.37s-.28-3-.84-4.34c-.56-1.34-1.33-2.51-2.31-3.52-.98-1.01-2.13-1.79-3.44-2.36-1.31-.56-2.7-.84-4.17-.84Z"/>
    <path class="cls-16" d="M59.33,153.61c-.81-.84-1.76-1.48-2.85-1.95-1.1-.46-2.33-.69-3.72-.69s-2.51.32-3.54.95c-1.04.63-1.84,1.52-2.42,2.66-.58,1.14-.86,2.46-.86,3.95s.29,2.82.86,3.95c.58,1.14,1.38,2.03,2.42,2.68,1.04.65,2.22.97,3.54.97,1.44,0,2.74-.24,3.89-.71,1.15-.48,2.12-1.17,2.9-2.1l2.77,2.72c-1.04,1.3-2.38,2.31-4.04,3.03-1.66.72-3.57,1.08-5.73,1.08-2.28,0-4.29-.49-6.03-1.47-1.74-.98-3.11-2.34-4.08-4.08-.98-1.74-1.47-3.77-1.47-6.07s.49-4.33,1.47-6.07c.98-1.74,2.34-3.11,4.08-4.11,1.74-.99,3.75-1.49,6.03-1.49,2.07,0,3.91.31,5.51.93,1.6.62,2.93,1.49,4,2.61l-2.72,3.2Z"/>
    <path class="cls-16" d="M65.17,147.86h14.95v3.54h-14.95v-3.54ZM73.33,162.73c0,1.24.22,2.08.65,2.53.43.45,1.04.67,1.82.67.52,0,1.06-.09,1.62-.26.56-.17,1.17-.43,1.84-.78l1.25,3.59c-.89.55-1.82.97-2.77,1.28-.95.3-1.92.45-2.9.45-1.15,0-2.22-.22-3.2-.67-.98-.45-1.77-1.16-2.36-2.14-.59-.98-.89-2.25-.89-3.8v-22h4.93v21.14Z"/>
    <path class="cls-16" d="M94.69,146.87c2.36,0,4.44.49,6.25,1.47,1.8.98,3.2,2.34,4.21,4.08,1.01,1.74,1.51,3.77,1.51,6.07s-.5,4.34-1.51,6.09c-1.01,1.76-2.41,3.13-4.21,4.11-1.8.98-3.88,1.47-6.25,1.47s-4.45-.49-6.27-1.47c-1.82-.98-3.23-2.35-4.24-4.11-1.01-1.76-1.51-3.79-1.51-6.09s.5-4.33,1.51-6.07c1.01-1.74,2.42-3.1,4.24-4.08,1.82-.98,3.9-1.47,6.27-1.47ZM94.69,150.89c-1.38,0-2.61.32-3.67.97-1.07.65-1.89,1.55-2.49,2.7-.59,1.15-.89,2.48-.89,3.98s.3,2.87.89,4.02c.59,1.15,1.42,2.05,2.49,2.7,1.07.65,2.29.97,3.67.97s2.6-.32,3.65-.97c1.05-.65,1.87-1.55,2.46-2.7.59-1.15.89-2.49.89-4.02s-.3-2.82-.89-3.98c-.59-1.15-1.41-2.05-2.46-2.7-1.05-.65-2.27-.97-3.65-.97Z"/>
    <path class="cls-16" d="M125.29,139.74c2.1,0,3.91.3,5.42.91,1.51.6,2.68,1.47,3.5,2.59s1.23,2.48,1.23,4.06c0,1.7-.48,3.16-1.43,4.37-.95,1.21-2.25,2-3.89,2.38,2.02.35,3.6,1.2,4.75,2.55,1.15,1.35,1.73,3.05,1.73,5.1,0,1.73-.45,3.21-1.34,4.45-.89,1.24-2.16,2.19-3.8,2.85-1.64.66-3.6.99-5.88.99h-13.44v-30.26h13.14ZM125.03,152.31c1.61,0,2.88-.37,3.8-1.1.92-.73,1.38-1.76,1.38-3.09s-.46-2.3-1.38-3c-.92-.71-2.19-1.04-3.8-1.02h-7.78v8.21h7.78ZM125.03,165.63c1.99.03,3.54-.35,4.67-1.15,1.12-.79,1.69-1.92,1.69-3.39,0-1.38-.56-2.47-1.69-3.26s-2.68-1.17-4.67-1.15h-7.78v8.95h7.78Z"/>
    <path class="cls-16" d="M152.21,146.87c2.36,0,4.44.49,6.25,1.47,1.8.98,3.2,2.34,4.21,4.08,1.01,1.74,1.51,3.77,1.51,6.07s-.5,4.34-1.51,6.09c-1.01,1.76-2.41,3.13-4.21,4.11-1.8.98-3.88,1.47-6.25,1.47s-4.45-.49-6.27-1.47c-1.82-.98-3.23-2.35-4.24-4.11-1.01-1.76-1.51-3.79-1.51-6.09s.5-4.33,1.51-6.07c1.01-1.74,2.42-3.1,4.24-4.08,1.82-.98,3.9-1.47,6.27-1.47ZM152.21,150.89c-1.38,0-2.61.32-3.67.97-1.07.65-1.89,1.55-2.49,2.7-.59,1.15-.89,2.48-.89,3.98s.29,2.87.89,4.02c.59,1.15,1.42,2.05,2.49,2.7,1.07.65,2.29.97,3.67.97s2.6-.32,3.65-.97c1.05-.65,1.87-1.55,2.46-2.7.59-1.15.89-2.49.89-4.02s-.3-2.82-.89-3.98c-.59-1.15-1.41-2.05-2.46-2.7-1.05-.65-2.27-.97-3.65-.97Z"/>
    <path class="cls-16" d="M167.04,147.86h14.95v3.54h-14.95v-3.54ZM175.21,162.73c0,1.24.22,2.08.65,2.53.43.45,1.04.67,1.82.67.52,0,1.06-.09,1.62-.26.56-.17,1.17-.43,1.84-.78l1.25,3.59c-.89.55-1.82.97-2.77,1.28-.95.3-1.92.45-2.9.45-1.15,0-2.22-.22-3.2-.67-.98-.45-1.77-1.16-2.36-2.14-.59-.98-.89-2.25-.89-3.8v-22h4.93v21.14Z"/>
  </g>
</svg>