<?xml version="1.0" encoding="UTF-8"?>
<svg id="Layer_1" data-name="Layer 1" xmlns="http://www.w3.org/2000/svg" xmlns:xlink="http://www.w3.org/1999/xlink" viewBox="0 0 546.21 563.75">
  <defs>
    <style>
      .cls-1 {
        fill: url(#linear-gradient-12);
      }

      .cls-1, .cls-2, .cls-3, .cls-4, .cls-5, .cls-6, .cls-7, .cls-8, .cls-9, .cls-10, .cls-11, .cls-12, .cls-13, .cls-14, .cls-15, .cls-16, .cls-17, .cls-18, .cls-19, .cls-20, .cls-21, .cls-22, .cls-23 {
        stroke-width: 0px;
      }

      .cls-2 {
        fill: url(#linear-gradient-17);
      }

      .cls-3 {
        fill: url(#linear-gradient-19);
      }

      .cls-4 {
        fill: url(#linear-gradient);
      }

      .cls-5 {
        fill: url(#linear-gradient-21);
      }

      .cls-6 {
        fill: url(#linear-gradient-6);
      }

      .cls-7 {
        fill: url(#linear-gradient-15);
      }

      .cls-8 {
        fill: url(#linear-gradient-11);
      }

      .cls-9 {
        fill: url(#linear-gradient-5);
      }

      .cls-10 {
        fill: url(#linear-gradient-13);
      }

      .cls-11 {
        fill: url(#linear-gradient-16);
      }

      .cls-12 {
        fill: url(#linear-gradient-22);
      }

      .cls-13 {
        fill: url(#linear-gradient-20);
      }

      .cls-14 {
        fill: url(#linear-gradient-14);
      }

      .cls-15 {
        fill: url(#linear-gradient-2);
      }

      .cls-16 {
        fill: #1c4075;
      }

      .cls-17 {
        fill: url(#linear-gradient-7);
      }

      .cls-18 {
        fill: url(#linear-gradient-3);
      }

      .cls-19 {
        fill: url(#linear-gradient-9);
      }

      .cls-20 {
        fill: url(#linear-gradient-8);
      }

      .cls-21 {
        fill: url(#linear-gradient-18);
      }

      .cls-22 {
        fill: url(#linear-gradient-10);
      }

      .cls-23 {
        fill: url(#linear-gradient-4);
      }
    </style>
    <linearGradient id="linear-gradient" x1="488.16" y1="96.73" x2="483.16" y2="105.39" gradientTransform="translate(260.57 -341) rotate(51.26)" gradientUnits="userSpaceOnUse">
      <stop offset=".1" stop-color="#4fc7ee"/>
      <stop offset=".23" stop-color="#45aed8"/>
      <stop offset=".49" stop-color="#2e71a1"/>
      <stop offset=".69" stop-color="#1c4075"/>
    </linearGradient>
    <linearGradient id="linear-gradient-2" x1="471.37" y1="303.93" x2="418.48" y2="395.54" gradientTransform="matrix(1,0,0,1,0,0)" xlink:href="#linear-gradient"/>
    <linearGradient id="linear-gradient-3" x1="332.56" y1="22.05" x2="106.71" y2="413.23" gradientTransform="matrix(1,0,0,1,0,0)" xlink:href="#linear-gradient"/>
    <linearGradient id="linear-gradient-4" x1="422.73" y1="119.36" x2="422.73" y2="119.36" gradientTransform="matrix(1,0,0,1,0,0)" xlink:href="#linear-gradient"/>
    <linearGradient id="linear-gradient-5" x1="449.41" y1="83.96" x2="441.14" y2="98.28" gradientTransform="matrix(1,0,0,1,0,0)" xlink:href="#linear-gradient"/>
    <linearGradient id="linear-gradient-6" x1="434.64" y1="101.59" x2="426.34" y2="115.97" gradientTransform="matrix(1,0,0,1,0,0)" xlink:href="#linear-gradient"/>
    <linearGradient id="linear-gradient-7" x1="474.45" y1="102.43" x2="469.69" y2="110.67" gradientTransform="translate(287.96 -341.01) rotate(54.92)" xlink:href="#linear-gradient"/>
    <linearGradient id="linear-gradient-8" x1="497.69" y1="80.87" x2="492.93" y2="89.11" gradientTransform="translate(280.18 -369.18) rotate(54.92)" xlink:href="#linear-gradient"/>
    <linearGradient id="linear-gradient-9" x1="500.74" y1="105.37" x2="496.19" y2="113.27" gradientTransform="translate(271.8 -347.89) rotate(51.26)" xlink:href="#linear-gradient"/>
    <linearGradient id="linear-gradient-10" x1="511.72" y1="90.49" x2="507.17" y2="98.38" gradientTransform="translate(264.28 -362.01) rotate(51.26)" xlink:href="#linear-gradient"/>
    <linearGradient id="linear-gradient-11" x1="510.97" y1="71.04" x2="507.14" y2="77.66" gradientTransform="translate(248.49 -369.24) rotate(51.26)" xlink:href="#linear-gradient"/>
    <linearGradient id="linear-gradient-12" x1="523.58" y1="81.91" x2="520.37" y2="87.46" gradientTransform="translate(261.38 -375.45) rotate(51.26)" xlink:href="#linear-gradient"/>
    <linearGradient id="linear-gradient-13" x1="526.41" y1="65.35" x2="523.2" y2="70.91" gradientTransform="translate(249.54 -383.86) rotate(51.26)" xlink:href="#linear-gradient"/>
    <linearGradient id="linear-gradient-14" x1="487.25" y1="48.64" x2="484.04" y2="54.2" gradientTransform="translate(221.87 -359.58) rotate(51.26)" xlink:href="#linear-gradient"/>
    <linearGradient id="linear-gradient-15" x1="500.07" y1="59.55" x2="496.86" y2="65.11" gradientTransform="translate(235.15 -365.47) rotate(51.26)" xlink:href="#linear-gradient"/>
    <linearGradient id="linear-gradient-16" x1="511.05" y1="49.26" x2="507.84" y2="54.82" gradientTransform="translate(231.23 -377.89) rotate(51.26)" xlink:href="#linear-gradient"/>
    <linearGradient id="linear-gradient-17" x1="487.93" y1="67.57" x2="483.37" y2="75.46" gradientTransform="translate(237.51 -352.04) rotate(51.26)" xlink:href="#linear-gradient"/>
    <linearGradient id="linear-gradient-18" x1="474.89" y1="60.65" x2="470.33" y2="68.54" gradientTransform="translate(227.24 -344.46) rotate(51.26)" xlink:href="#linear-gradient"/>
    <linearGradient id="linear-gradient-19" x1="463.28" y1="93.95" x2="458.73" y2="101.85" gradientTransform="translate(248.88 -322.95) rotate(51.26)" xlink:href="#linear-gradient"/>
    <linearGradient id="linear-gradient-20" x1="454.25" y1="106.04" x2="449.69" y2="113.93" gradientTransform="translate(254.92 -311.38) rotate(51.26)" xlink:href="#linear-gradient"/>
    <linearGradient id="linear-gradient-21" x1="478.77" y1="80.21" x2="472.1" y2="91.77" gradientTransform="translate(262.51 -347.71) rotate(53.6)" xlink:href="#linear-gradient"/>
    <linearGradient id="linear-gradient-22" x1="460.71" y1="70.18" x2="454.31" y2="81.28" gradientTransform="matrix(1,0,0,1,0,0)" xlink:href="#linear-gradient"/>
  </defs>
  <g>
    <rect class="cls-4" x="481.28" y="96.68" width="8.77" height="8.77" transform="translate(102.92 416.63) rotate(-51.26)"/>
    <g>
      <polygon class="cls-15" points="427.04 298.75 385.83 254.56 385.8 254.53 344.59 298.75 380.83 337.64 385.8 342.95 453.99 416.04 536.41 416.04 427.04 298.75"/>
      <path class="cls-18" d="M266.59,371.86c3.98-3.98,179.87-197.18,225.36-247.36l-6.97-4.45,4.68-7.3h-8.8l-3.84,5.94-9.17-5.94h-5.52l-6.69,10.44-12.03-7.72c-.28-.14-.56-.23-.84-.42-.37-.23-.75-.47-1.12-.75l-8.14,12.59-13.01-8.05h-.05l-3-1.92c-.28-.09-.51-.28-.7-.42l-23.4,25.04-56.45,60.52-15.3,16.43-12.17,13.01-13.76,14.79-34.35,36.88-6.88,7.35c-4.59,15.45-12.68,29.39-23.4,40.86-10.72,11.47-24.01,20.45-38.99,26.02-6.74,2.53-13.85,4.35-21.16,5.43-4.82.7-9.74,1.03-14.74,1.03-15.45,0-30.1-3.42-43.25-9.55-29.67-13.85-51.62-41.51-57.57-74.7-1.03-5.9-1.59-11.98-1.59-18.16,0-56.59,45.82-102.45,102.41-102.45,3.32,0,6.55.14,9.78.47h.05c8.47.8,16.66,2.67,24.48,5.38,19.66,7.02,36.6,19.84,48.68,36.46,12.26,16.85,19.52,37.63,19.52,60.14,0,1.73-.05,3.51-.19,5.29-.05.75-.05,1.54-.14,2.29l3-3.18,26.35-28.22,18.49-19.84,15.45-16.57V64.64l-11.28-12.12L261.31,0v145.98c-.96-.88-1.93-1.74-2.91-2.59-4.29-3.72-8.78-7.17-13.43-10.37-8.71-6.13-18.07-11.28-27.99-15.44-4.26-1.78-8.52-3.37-12.87-4.82-2.34-.75-4.63-1.4-6.97-2.01-8.14-2.25-16.43-3.79-24.9-4.63-5.29-.56-10.67-.84-16.1-.84-8.14,0-16.24.66-24.2,1.87-.14.05-.28.05-.37.09-7.91,1.26-15.73,3.09-23.36,5.52-4.35,1.45-8.61,3.04-12.82,4.82-18.63,7.86-35.34,19.1-49.66,33.42-14.32,14.32-25.56,31.03-33.42,49.66C4.17,219.93,0,240.38,0,261.45s4.17,41.47,12.31,60.75c7.86,18.63,19.1,35.34,33.42,49.66,14.32,14.32,31.03,25.56,49.66,33.46,12.45,5.24,25.46,8.85,38.8,10.72,7.21,1.03,14.56,1.54,21.95,1.54s14.79-.52,22.04-1.54c2.95-.42,5.85-.89,8.8-1.5,10.25-2.06,20.27-5.15,30-9.22,9.08-3.88,17.69-8.52,25.84-13.95,6.51-4.35,12.64-9.17,18.49-14.51,0,0,2.67-2.43,5.29-5.01Z"/>
    </g>
    <polygon class="cls-23" points="422.74 119.37 422.73 119.36 422.71 119.35 422.74 119.37"/>
    <polygon class="cls-9" points="454.21 88.56 446.26 82.15 436.37 93.64 444.75 100.37 454.21 88.56"/>
    <polygon class="cls-6" points="439.7 106.4 431.22 99.61 421.32 111.11 430.21 118.21 439.7 106.4"/>
    <rect class="cls-17" x="467.69" y="102.17" width="8.77" height="8.77" transform="translate(113.56 431.63) rotate(-54.92)"/>
    <rect class="cls-20" x="490.93" y="80.61" width="8.77" height="8.77" transform="translate(141.08 441.47) rotate(-54.92)"/>
    <rect class="cls-19" x="494.47" y="105.32" width="7.99" height="7.99" transform="translate(101.26 429.71) rotate(-51.26)"/>
    <rect class="cls-22" x="505.45" y="90.44" width="7.99" height="7.99" transform="translate(116.97 432.68) rotate(-51.26)"/>
    <rect class="cls-8" x="505.7" y="70.99" width="6.71" height="6.71" transform="translate(132.5 424.88) rotate(-51.26)"/>
    <rect class="cls-1" x="519.16" y="81.87" width="5.63" height="5.63" transform="translate(129.28 438.83) rotate(-51.26)"/>
    <rect class="cls-10" x="521.99" y="65.31" width="5.63" height="5.63" transform="translate(143.26 434.85) rotate(-51.26)"/>
    <rect class="cls-14" x="482.83" y="48.6" width="5.63" height="5.63" transform="translate(141.65 398.06) rotate(-51.26)"/>
    <rect class="cls-7" x="495.65" y="59.52" width="5.63" height="5.63" transform="translate(137.91 412.12) rotate(-51.26)"/>
    <rect class="cls-11" x="506.63" y="49.22" width="5.63" height="5.63" transform="translate(150.05 416.84) rotate(-51.26)"/>
    <rect class="cls-2" x="481.65" y="67.52" width="7.99" height="7.99" transform="translate(125.95 405.56) rotate(-51.26)"/>
    <rect class="cls-21" x="468.62" y="60.6" width="7.99" height="7.99" transform="translate(126.48 392.81) rotate(-51.26)"/>
    <rect class="cls-3" x="457.01" y="93.9" width="7.99" height="7.99" transform="translate(96.15 396.22) rotate(-51.26)"/>
    <rect class="cls-13" x="447.97" y="105.99" width="7.99" height="7.99" transform="translate(83.34 393.69) rotate(-51.26)"/>
    <rect class="cls-5" x="469.4" y="79.95" width="12.08" height="12.08" transform="translate(124.09 417.64) rotate(-53.6)"/>
    <polygon class="cls-12" points="465.04 73.57 457.95 68.58 450.03 77.78 458.1 83.47 465.04 73.57"/>
  </g>
  <g>
    <path class="cls-16" d="M55.55,545.59c0,2.12-.77,3.52-2.26,4.16-.68.32-1.9.45-3.71.45h-11.66c-2.94,0-5.02-.36-6.33-1.13-1.67-.95-2.53-2.8-2.53-5.47v-7.86h-6.24v7.86c0,8.45,4.97,12.66,14.96,12.66h16.36c4.88,0,7.64-2.76,7.64-7.46v-13.01h-6.24v9.81Z"/>
    <rect class="cls-16" x="35.53" y="530.54" width="5.65" height="5.24"/>
    <rect class="cls-16" x="44.07" y="530.54" width="5.65" height="5.24"/>
    <rect class="cls-16" x="95.79" y="527.15" width="5.65" height="5.2"/>
    <rect class="cls-16" x="104.34" y="527.15" width="5.6" height="5.2"/>
    <rect class="cls-16" x="100" y="519.69" width="5.6" height="5.2"/>
    <path class="cls-16" d="M112.61,546.13c0,2.71-1.08,4.07-3.21,4.07h-4.02c.5-1.35.77-2.89.77-4.56v-9.85h-6.33v10.35c0,2.71-1.09,4.07-3.21,4.07h-4.02c.5-1.35.77-2.89.77-4.56v-9.85h-6.37v10.08c0,3.25-1.13,4.34-3.21,4.34h-5.61c-4.65,0-5.42-1.63-5.42-4.7v-18.39h-6.33v21.69c0,4.66,2.8,7.46,7.64,7.46h15.14l.05.04v-.04h20.38c5.24,0,9.35-4.47,9.35-10.67v-9.81h-6.37v10.35Z"/>
    <path class="cls-16" d="M179.7,545.77c0,2.94-1.09,4.43-3.21,4.43h-8.28c-.68-6.05-3.03-10.26-7.05-12.66-1.67-.99-3.66-1.58-5.88-1.81h-3.39l5.65-8.59h-7.55l-8.95,14.42h11.39c2.44,0,4.52.86,6.24,2.58,1.58,1.58,2.58,3.61,2.89,6.05h-25.76c-4.65,0-5.42-1.63-5.42-4.7v-18.39h-6.33v21.69c0,4.66,2.8,7.46,7.64,7.46h46.11c2.67,0,4.75-.9,6.24-2.76,1.31-1.58,1.99-3.57,1.99-5.96v-20.38h-6.33v18.62Z"/>
    <rect class="cls-16" x="190.64" y="527.1" width="6.33" height="29.15"/>
    <path class="cls-16" d="M258.37,545.77c0,2.94-1.09,4.43-3.21,4.43h-3.31c-4.84-.09-6.73-1.72-7.91-6.91-1.04-4.57-4.79-7.5-10.03-7.5h-12.88c-6.69,0-11.25,4.7-11.25,12.02v15.95h6.24v-14.96c0-4.57,1.76-6.87,5.29-6.87h2.89c-.5,1.27-.72,2.67-.72,4.2,0,6.19,4.02,10.26,10.21,10.26,3.75,0,6.55-1.22,8.5-3.61,2.26,2.14,5.01,3.15,8.33,3.38v.1h5.97c2.67,0,4.75-.9,6.24-2.76,1.31-1.58,1.99-3.57,1.99-5.96v-20.38h-6.33v18.62ZM233.99,551.28h-.45c-2.31,0-3.89-2.12-3.89-5.15s1.58-5.2,4.2-5.2,4.16,1.99,4.16,5.02c0,3.57-1.36,5.33-4.02,5.33Z"/>
    <path class="cls-16" d="M279.12,535.69c-5.92,0-10.17,4.16-10.17,10.35s4.34,10.48,10.17,10.48c2.12,0,3.61-.68,4.47-2.08,0,2.44-2.49,4.2-5.02,4.2h-.41v5.06h.63c6.91,0,10.35-2.8,10.35-8.36v-9.22c0-5.96-4.21-10.44-10.03-10.44ZM279.21,550.65c-2.49,0-3.93-2.12-3.93-4.66,0-2.67,1.49-4.57,3.71-4.57s3.84,1.94,3.84,4.7-1.35,4.52-3.61,4.52Z"/>
    <rect class="cls-16" x="314.06" y="530.54" width="5.65" height="5.24"/>
    <path class="cls-16" d="M334.08,545.59c0,2.12-.77,3.52-2.26,4.16-.68.32-1.9.45-3.71.45h-11.66c-2.94,0-5.02-.36-6.33-1.13-1.67-.95-2.53-2.8-2.53-5.47v-7.86h-6.24v7.86c0,8.45,4.97,12.66,14.96,12.66h16.36c4.88,0,7.64-2.76,7.64-7.46v-13.01h-6.24v9.81Z"/>
    <rect class="cls-16" x="322.6" y="530.54" width="5.65" height="5.24"/>
    <rect class="cls-16" x="374.23" y="527.15" width="5.65" height="5.2"/>
    <rect class="cls-16" x="378.43" y="519.69" width="5.61" height="5.2"/>
    <rect class="cls-16" x="382.77" y="527.15" width="5.6" height="5.2"/>
    <path class="cls-16" d="M409.9,545.77c0,2.94-1.09,4.43-3.21,4.43h-10c.54-1.4.82-2.94.82-4.61v-9.81h-6.37v10.35c0,2.71-1.09,4.07-3.21,4.07h-4.02c.5-1.35.77-2.89.77-4.56v-9.85h-6.33v10.35c0,2.71-1.08,4.07-3.21,4.07h-4.02c.5-1.35.77-2.89.77-4.56v-9.85h-6.37v10.12c0,3.16-1.13,4.29-3.21,4.29h-5.61c-4.66,0-5.43-1.63-5.43-4.7v-18.39h-6.33v21.69c0,4.66,2.8,7.46,7.64,7.46h55.43c2.67,0,4.75-.9,6.24-2.76,1.31-1.58,1.99-3.57,1.99-5.96v-20.38h-6.33v18.62Z"/>
    <rect class="cls-16" x="420.85" y="527.1" width="6.33" height="29.15"/>
    <rect class="cls-16" x="457.51" y="558.51" width="5.65" height="5.24"/>
    <rect class="cls-16" x="483.91" y="558.51" width="5.61" height="5.24"/>
    <rect class="cls-16" x="492.41" y="558.51" width="5.6" height="5.24"/>
    <path class="cls-16" d="M537.93,535.78v10.35c0,2.71-1.09,4.07-3.21,4.07h-4.02c.5-1.35.77-2.89.77-4.56v-9.85h-6.33v10.35c0,2.71-1.08,4.07-3.21,4.07h-4.02c.5-1.35.77-2.89.77-4.56v-9.85h-6.37v10.08c0,1.22-.09,1.99-.27,2.35-.5,1.31-1.49,1.99-2.94,1.99h-11.17c.5-1.4.72-2.89.72-4.56v-9.85h-6.37v10.08c0,2.89-1.04,4.34-3.16,4.34h-10.82c.5-1.4.72-2.89.72-4.56v-9.85h-6.33v10.08c0,2.89-1.09,4.34-3.21,4.34h-14.42c-2.94,0-5.02-.36-6.33-1.13-1.67-.95-2.53-2.8-2.53-5.47v-7.82h-6.24v7.82c0,8.45,4.97,12.66,14.96,12.66h80.02c2.26,0,4.29-.81,6.06-2.4,2.21-1.99,3.3-4.75,3.3-8.27v-9.81h-6.37Z"/>
  </g>
  <g>
    <path class="cls-16" d="M65.72,417.58c6.73,0,13.01,1.17,18.83,3.5,5.83,2.33,10.92,5.61,15.27,9.84,4.36,4.23,7.77,9.13,10.23,14.69,2.46,5.57,3.69,11.58,3.69,18.06s-1.23,12.54-3.69,18.19c-2.46,5.65-5.87,10.59-10.23,14.82-4.36,4.23-9.45,7.53-15.27,9.9-5.82,2.37-12.1,3.56-18.83,3.56s-13.01-1.18-18.83-3.56c-5.83-2.37-10.92-5.67-15.27-9.9-4.36-4.23-7.77-9.17-10.23-14.82-2.46-5.65-3.69-11.71-3.69-18.19s1.23-12.51,3.69-18.12c2.46-5.61,5.87-10.51,10.23-14.69,4.36-4.18,9.45-7.44,15.27-9.77,5.82-2.33,12.1-3.5,18.83-3.5ZM65.85,430.53c-4.49,0-8.7.84-12.62,2.52-3.93,1.68-7.4,4.03-10.42,7.05-3.02,3.02-5.37,6.54-7.05,10.55-1.68,4.01-2.52,8.35-2.52,13.01s.86,9.02,2.59,13.07c1.73,4.06,4.1,7.62,7.12,10.68,3.02,3.06,6.49,5.46,10.42,7.18,3.93,1.73,8.09,2.59,12.49,2.59s8.56-.86,12.49-2.59c3.93-1.73,7.36-4.12,10.29-7.18,2.93-3.06,5.24-6.62,6.93-10.68,1.68-4.06,2.52-8.41,2.52-13.07s-.84-9-2.52-13.01c-1.68-4.01-3.99-7.53-6.93-10.55-2.93-3.02-6.36-5.37-10.29-7.05-3.93-1.68-8.09-2.52-12.49-2.52Z"/>
    <path class="cls-16" d="M177.69,460.04c-2.42-2.5-5.26-4.44-8.54-5.83-3.28-1.38-6.99-2.07-11.13-2.07s-7.51.95-10.61,2.85c-3.11,1.9-5.52,4.55-7.25,7.96-1.73,3.41-2.59,7.36-2.59,11.84s.86,8.44,2.59,11.84c1.73,3.41,4.14,6.08,7.25,8.03,3.11,1.94,6.64,2.91,10.61,2.91,4.31,0,8.2-.71,11.65-2.14,3.45-1.42,6.34-3.51,8.67-6.28l8.28,8.15c-3.11,3.88-7.14,6.91-12.1,9.06-4.96,2.16-10.68,3.24-17.15,3.24-6.82,0-12.84-1.47-18.06-4.4-5.22-2.93-9.3-7.01-12.23-12.23-2.93-5.22-4.4-11.28-4.4-18.19s1.47-12.97,4.4-18.19c2.93-5.22,7.01-9.32,12.23-12.3,5.22-2.98,11.24-4.47,18.06-4.47,6.21,0,11.71.93,16.5,2.78,4.79,1.86,8.78,4.47,11.97,7.83l-8.16,9.58Z"/>
    <path class="cls-16" d="M195.16,442.83h44.79v10.61h-44.79v-10.61ZM219.63,487.35c0,3.71.65,6.24,1.94,7.57,1.29,1.34,3.11,2.01,5.44,2.01,1.55,0,3.17-.26,4.85-.78,1.68-.52,3.51-1.29,5.5-2.33l3.75,10.74c-2.68,1.64-5.44,2.91-8.28,3.82-2.85.91-5.74,1.36-8.67,1.36-3.45,0-6.65-.67-9.58-2.01-2.93-1.34-5.29-3.47-7.05-6.41-1.77-2.93-2.65-6.73-2.65-11.39v-65.89h14.76v63.3Z"/>
    <path class="cls-16" d="M283.57,439.85c7.07,0,13.31,1.47,18.7,4.4,5.39,2.93,9.6,7.01,12.62,12.23,3.02,5.22,4.53,11.28,4.53,18.19s-1.51,12.99-4.53,18.25c-3.02,5.26-7.23,9.36-12.62,12.3-5.4,2.93-11.63,4.4-18.7,4.4s-13.33-1.47-18.77-4.4c-5.44-2.93-9.67-7.03-12.69-12.3-3.02-5.26-4.53-11.35-4.53-18.25s1.51-12.96,4.53-18.19c3.02-5.22,7.25-9.3,12.69-12.23,5.44-2.93,11.69-4.4,18.77-4.4ZM283.57,451.89c-4.14,0-7.81.97-11,2.91-3.19,1.94-5.67,4.64-7.44,8.09-1.77,3.45-2.65,7.42-2.65,11.91s.88,8.59,2.65,12.04c1.77,3.45,4.25,6.15,7.44,8.09,3.19,1.94,6.86,2.91,11,2.91s7.79-.97,10.94-2.91c3.15-1.94,5.61-4.64,7.38-8.09,1.77-3.45,2.65-7.46,2.65-12.04s-.89-8.46-2.65-11.91c-1.77-3.45-4.23-6.15-7.38-8.09-3.15-1.94-6.79-2.91-10.94-2.91Z"/>
    <path class="cls-16" d="M375.22,418.49c6.3,0,11.72.91,16.24,2.72,4.53,1.81,8.03,4.4,10.49,7.77,2.46,3.37,3.69,7.42,3.69,12.17,0,5.09-1.42,9.45-4.27,13.07-2.85,3.63-6.73,6-11.65,7.12,6.04,1.04,10.79,3.58,14.24,7.64,3.45,4.06,5.18,9.15,5.18,15.27,0,5.18-1.34,9.62-4.01,13.33-2.67,3.71-6.47,6.56-11.39,8.54-4.92,1.99-10.79,2.98-17.61,2.98h-40.26v-90.61h39.35ZM374.44,456.16c4.83,0,8.63-1.1,11.39-3.3,2.76-2.2,4.14-5.29,4.14-9.26s-1.38-6.88-4.14-9c-2.76-2.11-6.56-3.13-11.39-3.04h-23.3v24.59h23.3ZM374.44,496.03c5.95.09,10.61-1.06,13.98-3.43,3.37-2.37,5.05-5.76,5.05-10.16,0-4.14-1.68-7.4-5.05-9.77-3.37-2.37-8.03-3.52-13.98-3.43h-23.3v26.79h23.3Z"/>
    <path class="cls-16" d="M455.86,439.85c7.08,0,13.31,1.47,18.7,4.4,5.39,2.93,9.6,7.01,12.62,12.23,3.02,5.22,4.53,11.28,4.53,18.19s-1.51,12.99-4.53,18.25c-3.02,5.26-7.23,9.36-12.62,12.3-5.39,2.93-11.63,4.4-18.7,4.4s-13.33-1.47-18.77-4.4c-5.44-2.93-9.67-7.03-12.69-12.3-3.02-5.26-4.53-11.35-4.53-18.25s1.51-12.96,4.53-18.19c3.02-5.22,7.25-9.3,12.69-12.23,5.44-2.93,11.69-4.4,18.77-4.4ZM455.86,451.89c-4.14,0-7.81.97-11,2.91-3.19,1.94-5.67,4.64-7.44,8.09-1.77,3.45-2.65,7.42-2.65,11.91s.88,8.59,2.65,12.04c1.77,3.45,4.25,6.15,7.44,8.09,3.19,1.94,6.86,2.91,11,2.91s7.79-.97,10.94-2.91c3.15-1.94,5.61-4.64,7.38-8.09,1.77-3.45,2.65-7.46,2.65-12.04s-.89-8.46-2.65-11.91c-1.77-3.45-4.23-6.15-7.38-8.09-3.15-1.94-6.8-2.91-10.94-2.91Z"/>
    <path class="cls-16" d="M500.26,442.83h44.79v10.61h-44.79v-10.61ZM524.72,487.35c0,3.71.65,6.24,1.94,7.57,1.29,1.34,3.11,2.01,5.44,2.01,1.55,0,3.17-.26,4.85-.78,1.68-.52,3.51-1.29,5.5-2.33l3.75,10.74c-2.68,1.64-5.44,2.91-8.28,3.82-2.85.91-5.74,1.36-8.67,1.36-3.45,0-6.65-.67-9.58-2.01-2.93-1.34-5.29-3.47-7.06-6.41-1.77-2.93-2.65-6.73-2.65-11.39v-65.89h14.76v63.3Z"/>
  </g>
</svg>